<svg xmlns="http://www.w3.org/2000/svg" data-name="Layer 1" viewBox="0 0 100 125" x="0px" y="0px"><title>Artboard 589</title><path d="M34,38a4,4,0,0,1,4,4,4,4,0,0,0,8,0,12,12,0,0,0-24,0,4,4,0,0,0,8,0A4,4,0,0,1,34,38Z"/><path d="M66,30A12,12,0,0,0,54,42a4,4,0,0,0,8,0,4,4,0,0,1,8,0,4,4,0,0,0,8,0A12,12,0,0,0,66,30Z"/><path d="M50,2A48,48,0,1,0,98,50,48.05,48.05,0,0,0,50,2Zm0,88A40,40,0,1,1,90,50,40,40,0,0,1,50,90Z"/><path d="M63.17,59.17l-2.34,2.35a15.7,15.7,0,0,1-21.66,0l-2.34-2.35a4,4,0,0,0-5.66,5.66l2.35,2.34a23.3,23.3,0,0,0,33,0l2.35-2.34a4,4,0,0,0-5.66-5.66Z"/></svg>