<svg xmlns="http://www.w3.org/2000/svg" data-name="Layer 1" viewBox="0 0 100 125" x="0px" y="0px"><title>office_7</title><path d="M72.06,36.86h0C69.74,25.75,60.67,18,50,18S30.26,25.75,27.94,36.86a74.59,74.59,0,0,0-1.83,18.72c.47,9.06,1.91,15.71,7.61,20.87A21.84,21.84,0,0,0,48.43,82h3.14a21.84,21.84,0,0,0,14.71-5.55c5.7-5.16,7.14-11.81,7.61-20.87A74.59,74.59,0,0,0,72.06,36.86ZM69.9,55.37c-.43,8.25-1.6,13.86-6.31,18.12a17.81,17.81,0,0,1-12,4.51H48.43a17.81,17.81,0,0,1-12-4.51c-4.71-4.26-5.88-9.87-6.31-18.12a70.87,70.87,0,0,1,1.76-17.7C33.78,28.44,41.24,22,50,22s16.22,6.44,18.14,15.67h0A70.87,70.87,0,0,1,69.9,55.37ZM52,31.08v8.35a2,2,0,1,1-4,0V31.08a2,2,0,0,1,4,0Z"/></svg>